<mxfile host="65bd71144e">
    <diagram id="ocqX7D5aFa7DN-SZ3gPh" name="Page-1">
        <mxGraphModel dx="175" dy="158" grid="1" gridSize="10" guides="1" tooltips="1" connect="1" arrows="1" fold="1" page="1" pageScale="1" pageWidth="850" pageHeight="1100" math="0" shadow="0">
            <root>
                <mxCell id="0"/>
                <mxCell id="1" parent="0"/>
                <mxCell id="4" value="" style="edgeStyle=orthogonalEdgeStyle;html=1;" edge="1" parent="1" source="2" target="3">
                    <mxGeometry relative="1" as="geometry"/>
                </mxCell>
                <mxCell id="2" value="&lt;font color=&quot;#dcdcaa&quot;&gt;Start&lt;/font&gt;" style="ellipse;whiteSpace=wrap;html=1;" vertex="1" parent="1">
                    <mxGeometry x="270" y="70" width="120" height="80" as="geometry"/>
                </mxCell>
                <mxCell id="8" value="" style="edgeStyle=orthogonalEdgeStyle;html=1;" edge="1" parent="1" source="3" target="7">
                    <mxGeometry relative="1" as="geometry"/>
                </mxCell>
                <mxCell id="3" value="&lt;div style=&quot;font-family: Consolas, &amp;quot;Courier New&amp;quot;, monospace; font-size: 14px; line-height: 19px;&quot;&gt;&lt;font style=&quot;background-color: rgb(30, 30, 30);&quot; color=&quot;#dcdcaa&quot;&gt;GetArrayLength&lt;/font&gt;&lt;/div&gt;&lt;div style=&quot;font-family: Consolas, &amp;quot;Courier New&amp;quot;, monospace; font-size: 14px; line-height: 19px;&quot;&gt;&lt;div style=&quot;line-height: 19px;&quot;&gt;&lt;font style=&quot;background-color: rgb(30, 30, 30);&quot; color=&quot;#dcdcaa&quot;&gt;GetArray&lt;/font&gt;&lt;/div&gt;&lt;/div&gt;" style="shape=parallelogram;perimeter=parallelogramPerimeter;whiteSpace=wrap;html=1;fixedSize=1;" vertex="1" parent="1">
                    <mxGeometry x="237.5" y="180" width="185" height="60" as="geometry"/>
                </mxCell>
                <mxCell id="10" value="" style="edgeStyle=orthogonalEdgeStyle;html=1;fontColor=#DCDCAA;" edge="1" parent="1" source="7" target="9">
                    <mxGeometry relative="1" as="geometry"/>
                </mxCell>
                <mxCell id="7" value="&lt;div style=&quot;font-family: Consolas, &amp;quot;Courier New&amp;quot;, monospace; font-size: 14px; line-height: 19px;&quot;&gt;&lt;font style=&quot;background-color: rgb(30, 30, 30);&quot; color=&quot;#dcdcaa&quot;&gt;GetArrayLessThenFourNum&lt;/font&gt;&lt;/div&gt;&lt;div style=&quot;font-family: Consolas, &amp;quot;Courier New&amp;quot;, monospace; font-size: 14px; line-height: 19px;&quot;&gt;&lt;div style=&quot;color: rgb(212, 212, 212); line-height: 19px;&quot;&gt;&lt;span style=&quot;background-color: rgb(30, 30, 30);&quot;&gt;&lt;span style=&quot;color: rgb(86, 156, 214);&quot;&gt;int&lt;/span&gt; &lt;span style=&quot;color: rgb(156, 220, 254);&quot;&gt;size&lt;/span&gt; = &lt;span style=&quot;color: rgb(181, 206, 168);&quot;&gt;0&lt;/span&gt;&lt;/span&gt;&lt;/div&gt;&lt;/div&gt;" style="whiteSpace=wrap;html=1;" vertex="1" parent="1">
                    <mxGeometry x="235" y="270" width="190" height="60" as="geometry"/>
                </mxCell>
                <mxCell id="14" value="" style="edgeStyle=orthogonalEdgeStyle;html=1;fontColor=#DCDCAA;" edge="1" parent="1" source="9" target="13">
                    <mxGeometry relative="1" as="geometry"/>
                </mxCell>
                <mxCell id="20" value="&lt;font style=&quot;font-size: 16px;&quot;&gt;yes&lt;/font&gt;" style="edgeLabel;html=1;align=center;verticalAlign=middle;resizable=0;points=[];fontColor=#DCDCAA;" vertex="1" connectable="0" parent="14">
                    <mxGeometry x="0.2789" y="-1" relative="1" as="geometry">
                        <mxPoint x="1" y="-6" as="offset"/>
                    </mxGeometry>
                </mxCell>
                <mxCell id="26" value="" style="edgeStyle=orthogonalEdgeStyle;html=1;fontSize=16;fontColor=#DCDCAA;" edge="1" parent="1" source="9" target="25">
                    <mxGeometry relative="1" as="geometry"/>
                </mxCell>
                <mxCell id="30" value="no" style="edgeLabel;html=1;align=center;verticalAlign=middle;resizable=0;points=[];fontSize=16;fontColor=#DCDCAA;" vertex="1" connectable="0" parent="26">
                    <mxGeometry x="-0.2698" relative="1" as="geometry">
                        <mxPoint as="offset"/>
                    </mxGeometry>
                </mxCell>
                <mxCell id="9" value="&lt;div style=&quot;color: rgb(212, 212, 212); font-family: Consolas, &amp;quot;Courier New&amp;quot;, monospace; font-size: 14px; line-height: 19px;&quot;&gt;&lt;span style=&quot;background-color: rgb(30, 30, 30);&quot;&gt;&lt;span style=&quot;color: rgb(86, 156, 214);&quot;&gt;int&lt;/span&gt; &lt;span style=&quot;color: rgb(156, 220, 254);&quot;&gt;i&lt;/span&gt; = &lt;span style=&quot;color: rgb(181, 206, 168);&quot;&gt;0&lt;/span&gt;; &lt;span style=&quot;color: rgb(156, 220, 254);&quot;&gt;i&lt;/span&gt; &amp;lt; &lt;span style=&quot;color: rgb(156, 220, 254);&quot;&gt;array&lt;/span&gt;.Length; &lt;span style=&quot;color: rgb(156, 220, 254);&quot;&gt;i&lt;/span&gt;++&lt;/span&gt;&lt;/div&gt;" style="shape=hexagon;perimeter=hexagonPerimeter2;whiteSpace=wrap;html=1;fixedSize=1;" vertex="1" parent="1">
                    <mxGeometry x="172.5" y="360" width="315" height="80" as="geometry"/>
                </mxCell>
                <mxCell id="16" value="" style="edgeStyle=orthogonalEdgeStyle;html=1;fontColor=#DCDCAA;" edge="1" parent="1" source="13" target="15">
                    <mxGeometry relative="1" as="geometry"/>
                </mxCell>
                <mxCell id="21" value="yes" style="edgeLabel;html=1;align=center;verticalAlign=middle;resizable=0;points=[];fontSize=16;fontColor=#DCDCAA;" vertex="1" connectable="0" parent="16">
                    <mxGeometry x="0.2667" y="-1" relative="1" as="geometry">
                        <mxPoint x="1" y="-12" as="offset"/>
                    </mxGeometry>
                </mxCell>
                <mxCell id="19" style="edgeStyle=orthogonalEdgeStyle;html=1;entryX=0;entryY=0.5;entryDx=0;entryDy=0;fontColor=#DCDCAA;" edge="1" parent="1" source="13" target="9">
                    <mxGeometry relative="1" as="geometry">
                        <Array as="points">
                            <mxPoint x="120" y="560"/>
                            <mxPoint x="120" y="400"/>
                        </Array>
                    </mxGeometry>
                </mxCell>
                <mxCell id="22" value="no" style="edgeLabel;html=1;align=center;verticalAlign=middle;resizable=0;points=[];fontSize=16;fontColor=#DCDCAA;" vertex="1" connectable="0" parent="19">
                    <mxGeometry x="-0.7146" y="1" relative="1" as="geometry">
                        <mxPoint as="offset"/>
                    </mxGeometry>
                </mxCell>
                <mxCell id="13" value="&lt;div style=&quot;color: rgb(212, 212, 212); background-color: rgb(30, 30, 30); font-family: Consolas, &amp;quot;Courier New&amp;quot;, monospace; font-size: 14px; line-height: 19px;&quot;&gt;&lt;span style=&quot;color: #9cdcfe;&quot;&gt;array&lt;/span&gt;[&lt;span style=&quot;color: #9cdcfe;&quot;&gt;i&lt;/span&gt;].Length &amp;lt; &lt;span style=&quot;color: #b5cea8;&quot;&gt;4&lt;/span&gt;&lt;/div&gt;" style="rhombus;whiteSpace=wrap;html=1;" vertex="1" parent="1">
                    <mxGeometry x="240" y="490" width="180" height="140" as="geometry"/>
                </mxCell>
                <mxCell id="17" style="edgeStyle=orthogonalEdgeStyle;html=1;entryX=0;entryY=0.5;entryDx=0;entryDy=0;fontColor=#DCDCAA;" edge="1" parent="1" source="15" target="9">
                    <mxGeometry relative="1" as="geometry">
                        <Array as="points">
                            <mxPoint x="120" y="730"/>
                            <mxPoint x="120" y="400"/>
                        </Array>
                    </mxGeometry>
                </mxCell>
                <mxCell id="15" value="&lt;div style=&quot;color: rgb(212, 212, 212); font-family: Consolas, &amp;quot;Courier New&amp;quot;, monospace; font-size: 14px; line-height: 19px;&quot;&gt;&lt;span style=&quot;background-color: rgb(30, 30, 30);&quot;&gt;&lt;span style=&quot;color: rgb(156, 220, 254);&quot;&gt;filteredArray&lt;/span&gt;[&lt;span style=&quot;color: rgb(156, 220, 254);&quot;&gt;size&lt;/span&gt;] = &lt;span style=&quot;color: rgb(156, 220, 254);&quot;&gt;array&lt;/span&gt;[&lt;span style=&quot;color: rgb(156, 220, 254);&quot;&gt;i&lt;/span&gt;]&lt;/span&gt;&lt;/div&gt;&lt;div style=&quot;color: rgb(212, 212, 212); font-family: Consolas, &amp;quot;Courier New&amp;quot;, monospace; font-size: 14px; line-height: 19px;&quot;&gt;&lt;div style=&quot;line-height: 19px;&quot;&gt;&lt;span style=&quot;color: rgb(156, 220, 254); background-color: rgb(30, 30, 30);&quot;&gt;&lt;br&gt;&lt;/span&gt;&lt;/div&gt;&lt;div style=&quot;line-height: 19px;&quot;&gt;&lt;span style=&quot;background-color: rgb(30, 30, 30);&quot;&gt;&lt;span style=&quot;color: rgb(156, 220, 254);&quot;&gt;size&lt;/span&gt;++&lt;/span&gt;&lt;/div&gt;&lt;/div&gt;" style="whiteSpace=wrap;html=1;" vertex="1" parent="1">
                    <mxGeometry x="185" y="670" width="290" height="110" as="geometry"/>
                </mxCell>
                <mxCell id="28" style="edgeStyle=orthogonalEdgeStyle;html=1;fontSize=16;fontColor=#DCDCAA;" edge="1" parent="1" source="25" target="27">
                    <mxGeometry relative="1" as="geometry"/>
                </mxCell>
                <mxCell id="25" value="&lt;div style=&quot;color: rgb(212, 212, 212); background-color: rgb(30, 30, 30); font-family: Consolas, &amp;quot;Courier New&amp;quot;, monospace; font-size: 14px; line-height: 19px;&quot;&gt;&lt;span style=&quot;color: #dcdcaa;&quot;&gt;PrintArray&lt;/span&gt;&lt;/div&gt;" style="shape=document;whiteSpace=wrap;html=1;boundedLbl=1;" vertex="1" parent="1">
                    <mxGeometry x="540" y="360" width="120" height="80" as="geometry"/>
                </mxCell>
                <mxCell id="27" value="end" style="ellipse;whiteSpace=wrap;html=1;labelBackgroundColor=#1E1E1E;fontSize=16;fontColor=#DCDCAA;" vertex="1" parent="1">
                    <mxGeometry x="540" y="490" width="120" height="80" as="geometry"/>
                </mxCell>
            </root>
        </mxGraphModel>
    </diagram>
</mxfile>